<mxfile host="app.diagrams.net" agent="Mozilla/5.0 (Windows NT 10.0; Win64; x64) AppleWebKit/537.36 (KHTML, like Gecko) Chrome/135.0.0.0 Safari/537.36" version="27.0.3" pages="6">
  <diagram name="Dreams" id="jNPbaxhQGkxqqcFiZazR">
    <mxGraphModel dx="1866" dy="1140" grid="1" gridSize="10" guides="1" tooltips="1" connect="1" arrows="1" fold="1" page="1" pageScale="1" pageWidth="827" pageHeight="1169" math="0" shadow="0">
      <root>
        <mxCell id="0" />
        <mxCell id="1" parent="0" />
        <mxCell id="R5GOZBS0TohC0Uxq_gBI-1" value="" style="group" vertex="1" connectable="0" parent="1">
          <mxGeometry x="174" y="200" width="130" height="70" as="geometry" />
        </mxCell>
        <mxCell id="R5GOZBS0TohC0Uxq_gBI-2" value="&lt;span style=&quot;text-align: left;&quot;&gt;Падение в бездну&lt;/span&gt;" style="rounded=0;whiteSpace=wrap;html=1;" vertex="1" parent="R5GOZBS0TohC0Uxq_gBI-1">
          <mxGeometry width="130" height="70" as="geometry" />
        </mxCell>
        <mxCell id="R5GOZBS0TohC0Uxq_gBI-3" value="1" style="rounded=0;whiteSpace=wrap;html=1;" vertex="1" parent="R5GOZBS0TohC0Uxq_gBI-1">
          <mxGeometry x="35" width="60" height="25" as="geometry" />
        </mxCell>
        <mxCell id="R5GOZBS0TohC0Uxq_gBI-4" value="" style="group" vertex="1" connectable="0" parent="1">
          <mxGeometry x="524" y="200" width="130" height="70" as="geometry" />
        </mxCell>
        <mxCell id="R5GOZBS0TohC0Uxq_gBI-5" value="&lt;span style=&quot;text-align: left;&quot;&gt;Полёт над городом&lt;/span&gt;" style="rounded=0;whiteSpace=wrap;html=1;" vertex="1" parent="R5GOZBS0TohC0Uxq_gBI-4">
          <mxGeometry width="130" height="70" as="geometry" />
        </mxCell>
        <mxCell id="R5GOZBS0TohC0Uxq_gBI-6" value="2" style="rounded=0;whiteSpace=wrap;html=1;" vertex="1" parent="R5GOZBS0TohC0Uxq_gBI-4">
          <mxGeometry x="35" width="60" height="25" as="geometry" />
        </mxCell>
        <mxCell id="R5GOZBS0TohC0Uxq_gBI-7" value="" style="group" vertex="1" connectable="0" parent="1">
          <mxGeometry x="174" y="350" width="130" height="70" as="geometry" />
        </mxCell>
        <mxCell id="R5GOZBS0TohC0Uxq_gBI-8" value="&lt;span style=&quot;text-align: left;&quot;&gt;Погоня&lt;/span&gt;" style="rounded=0;whiteSpace=wrap;html=1;" vertex="1" parent="R5GOZBS0TohC0Uxq_gBI-7">
          <mxGeometry width="130" height="70" as="geometry" />
        </mxCell>
        <mxCell id="R5GOZBS0TohC0Uxq_gBI-9" value="3" style="rounded=0;whiteSpace=wrap;html=1;" vertex="1" parent="R5GOZBS0TohC0Uxq_gBI-7">
          <mxGeometry x="35" width="60" height="25" as="geometry" />
        </mxCell>
        <mxCell id="R5GOZBS0TohC0Uxq_gBI-10" value="" style="group" vertex="1" connectable="0" parent="1">
          <mxGeometry x="524" y="350" width="130" height="70" as="geometry" />
        </mxCell>
        <mxCell id="R5GOZBS0TohC0Uxq_gBI-11" value="&lt;span style=&quot;text-align: left;&quot;&gt;Змеиная яма&lt;/span&gt;" style="rounded=0;whiteSpace=wrap;html=1;" vertex="1" parent="R5GOZBS0TohC0Uxq_gBI-10">
          <mxGeometry width="130" height="70" as="geometry" />
        </mxCell>
        <mxCell id="R5GOZBS0TohC0Uxq_gBI-12" value="4" style="rounded=0;whiteSpace=wrap;html=1;" vertex="1" parent="R5GOZBS0TohC0Uxq_gBI-10">
          <mxGeometry x="35" width="60" height="25" as="geometry" />
        </mxCell>
        <mxCell id="R5GOZBS0TohC0Uxq_gBI-13" value="" style="group" vertex="1" connectable="0" parent="1">
          <mxGeometry x="174" y="540" width="130" height="70" as="geometry" />
        </mxCell>
        <mxCell id="R5GOZBS0TohC0Uxq_gBI-14" value="&lt;span style=&quot;text-align: left;&quot;&gt;Детство&lt;/span&gt;" style="rounded=0;whiteSpace=wrap;html=1;" vertex="1" parent="R5GOZBS0TohC0Uxq_gBI-13">
          <mxGeometry width="130" height="70" as="geometry" />
        </mxCell>
        <mxCell id="R5GOZBS0TohC0Uxq_gBI-15" value="5" style="rounded=0;whiteSpace=wrap;html=1;" vertex="1" parent="R5GOZBS0TohC0Uxq_gBI-13">
          <mxGeometry x="35" width="60" height="25" as="geometry" />
        </mxCell>
        <mxCell id="R5GOZBS0TohC0Uxq_gBI-16" value="" style="group" vertex="1" connectable="0" parent="1">
          <mxGeometry x="524" y="540" width="130" height="70" as="geometry" />
        </mxCell>
        <mxCell id="R5GOZBS0TohC0Uxq_gBI-17" value="&lt;span style=&quot;text-align: left;&quot;&gt;Дом на воде&lt;/span&gt;" style="rounded=0;whiteSpace=wrap;html=1;" vertex="1" parent="R5GOZBS0TohC0Uxq_gBI-16">
          <mxGeometry width="130" height="70" as="geometry" />
        </mxCell>
        <mxCell id="R5GOZBS0TohC0Uxq_gBI-18" value="6" style="rounded=0;whiteSpace=wrap;html=1;" vertex="1" parent="R5GOZBS0TohC0Uxq_gBI-16">
          <mxGeometry x="35" width="60" height="25" as="geometry" />
        </mxCell>
        <mxCell id="R5GOZBS0TohC0Uxq_gBI-19" value="" style="group" vertex="1" connectable="0" parent="1">
          <mxGeometry x="174" y="720" width="130" height="70" as="geometry" />
        </mxCell>
        <mxCell id="R5GOZBS0TohC0Uxq_gBI-20" value="&lt;span style=&quot;text-align: left;&quot;&gt;Пожар&lt;/span&gt;" style="rounded=0;whiteSpace=wrap;html=1;" vertex="1" parent="R5GOZBS0TohC0Uxq_gBI-19">
          <mxGeometry width="130" height="70" as="geometry" />
        </mxCell>
        <mxCell id="R5GOZBS0TohC0Uxq_gBI-21" value="7" style="rounded=0;whiteSpace=wrap;html=1;" vertex="1" parent="R5GOZBS0TohC0Uxq_gBI-19">
          <mxGeometry x="35" width="60" height="25" as="geometry" />
        </mxCell>
        <mxCell id="R5GOZBS0TohC0Uxq_gBI-22" value="" style="group" vertex="1" connectable="0" parent="1">
          <mxGeometry x="524" y="720" width="130" height="70" as="geometry" />
        </mxCell>
        <mxCell id="R5GOZBS0TohC0Uxq_gBI-23" value="&lt;span style=&quot;text-align: left;&quot;&gt;Свадьба&lt;/span&gt;" style="rounded=0;whiteSpace=wrap;html=1;" vertex="1" parent="R5GOZBS0TohC0Uxq_gBI-22">
          <mxGeometry width="130" height="70" as="geometry" />
        </mxCell>
        <mxCell id="R5GOZBS0TohC0Uxq_gBI-24" value="8" style="rounded=0;whiteSpace=wrap;html=1;" vertex="1" parent="R5GOZBS0TohC0Uxq_gBI-22">
          <mxGeometry x="35" width="60" height="25" as="geometry" />
        </mxCell>
        <mxCell id="R5GOZBS0TohC0Uxq_gBI-25" value="" style="group" vertex="1" connectable="0" parent="1">
          <mxGeometry x="174" y="900" width="130" height="70" as="geometry" />
        </mxCell>
        <mxCell id="R5GOZBS0TohC0Uxq_gBI-26" value="&lt;span style=&quot;text-align: left;&quot;&gt;Исчезновение&lt;/span&gt;" style="rounded=0;whiteSpace=wrap;html=1;" vertex="1" parent="R5GOZBS0TohC0Uxq_gBI-25">
          <mxGeometry width="130" height="70" as="geometry" />
        </mxCell>
        <mxCell id="R5GOZBS0TohC0Uxq_gBI-27" value="9" style="rounded=0;whiteSpace=wrap;html=1;" vertex="1" parent="R5GOZBS0TohC0Uxq_gBI-25">
          <mxGeometry x="35" width="60" height="25" as="geometry" />
        </mxCell>
        <mxCell id="R5GOZBS0TohC0Uxq_gBI-28" value="" style="group" vertex="1" connectable="0" parent="1">
          <mxGeometry x="524" y="900" width="130" height="70" as="geometry" />
        </mxCell>
        <mxCell id="R5GOZBS0TohC0Uxq_gBI-29" value="&lt;span style=&quot;text-align: left;&quot;&gt;Горы&lt;/span&gt;" style="rounded=0;whiteSpace=wrap;html=1;" vertex="1" parent="R5GOZBS0TohC0Uxq_gBI-28">
          <mxGeometry width="130" height="70" as="geometry" />
        </mxCell>
        <mxCell id="R5GOZBS0TohC0Uxq_gBI-30" value="10" style="rounded=0;whiteSpace=wrap;html=1;" vertex="1" parent="R5GOZBS0TohC0Uxq_gBI-28">
          <mxGeometry x="35" width="60" height="25" as="geometry" />
        </mxCell>
        <mxCell id="_maSCCvE1WdR1p3VezHh-1" value="&lt;font style=&quot;font-size: 50px;&quot; face=&quot;Times New Roman&quot;&gt;Сны&lt;/font&gt;" style="text;html=1;align=center;verticalAlign=middle;resizable=0;points=[];autosize=1;strokeColor=none;fillColor=none;" vertex="1" parent="1">
          <mxGeometry x="340" y="50" width="120" height="70" as="geometry" />
        </mxCell>
      </root>
    </mxGraphModel>
  </diagram>
  <diagram id="rzEfy0Vb7DaqCI_GaMgo" name="Symbols">
    <mxGraphModel dx="2666" dy="1629" grid="1" gridSize="10" guides="1" tooltips="1" connect="1" arrows="1" fold="1" page="1" pageScale="1" pageWidth="827" pageHeight="1169" math="0" shadow="0">
      <root>
        <mxCell id="0" />
        <mxCell id="1" parent="0" />
        <mxCell id="FKIXpGyeUI2bLtHF8StU-31" value="" style="group" vertex="1" connectable="0" parent="1">
          <mxGeometry x="111" y="265" width="170" height="170" as="geometry" />
        </mxCell>
        <mxCell id="FKIXpGyeUI2bLtHF8StU-32" value="лестница" style="ellipse;whiteSpace=wrap;html=1;aspect=fixed;" vertex="1" parent="FKIXpGyeUI2bLtHF8StU-31">
          <mxGeometry width="170" height="170" as="geometry" />
        </mxCell>
        <mxCell id="FKIXpGyeUI2bLtHF8StU-33" value="3" style="ellipse;whiteSpace=wrap;html=1;aspect=fixed;" vertex="1" parent="FKIXpGyeUI2bLtHF8StU-31">
          <mxGeometry x="55" width="60" height="60" as="geometry" />
        </mxCell>
        <mxCell id="FKIXpGyeUI2bLtHF8StU-34" value="" style="group" vertex="1" connectable="0" parent="1">
          <mxGeometry x="546" y="265" width="170" height="170" as="geometry" />
        </mxCell>
        <mxCell id="FKIXpGyeUI2bLtHF8StU-35" value="&lt;div&gt;огонь&lt;/div&gt;" style="ellipse;whiteSpace=wrap;html=1;aspect=fixed;" vertex="1" parent="FKIXpGyeUI2bLtHF8StU-34">
          <mxGeometry width="170" height="170" as="geometry" />
        </mxCell>
        <mxCell id="FKIXpGyeUI2bLtHF8StU-36" value="4" style="ellipse;whiteSpace=wrap;html=1;aspect=fixed;" vertex="1" parent="FKIXpGyeUI2bLtHF8StU-34">
          <mxGeometry x="55" width="60" height="60" as="geometry" />
        </mxCell>
        <mxCell id="FKIXpGyeUI2bLtHF8StU-37" value="" style="group" vertex="1" connectable="0" parent="1">
          <mxGeometry x="111" y="475" width="170" height="170" as="geometry" />
        </mxCell>
        <mxCell id="FKIXpGyeUI2bLtHF8StU-38" value="дом" style="ellipse;whiteSpace=wrap;html=1;aspect=fixed;" vertex="1" parent="FKIXpGyeUI2bLtHF8StU-37">
          <mxGeometry width="170" height="170" as="geometry" />
        </mxCell>
        <mxCell id="FKIXpGyeUI2bLtHF8StU-39" value="5" style="ellipse;whiteSpace=wrap;html=1;aspect=fixed;" vertex="1" parent="FKIXpGyeUI2bLtHF8StU-37">
          <mxGeometry x="55" width="60" height="60" as="geometry" />
        </mxCell>
        <mxCell id="FKIXpGyeUI2bLtHF8StU-40" value="" style="group" vertex="1" connectable="0" parent="1">
          <mxGeometry x="546" y="475" width="170" height="170" as="geometry" />
        </mxCell>
        <mxCell id="FKIXpGyeUI2bLtHF8StU-41" value="мост" style="ellipse;whiteSpace=wrap;html=1;aspect=fixed;" vertex="1" parent="FKIXpGyeUI2bLtHF8StU-40">
          <mxGeometry width="170" height="170" as="geometry" />
        </mxCell>
        <mxCell id="FKIXpGyeUI2bLtHF8StU-42" value="6" style="ellipse;whiteSpace=wrap;html=1;aspect=fixed;" vertex="1" parent="FKIXpGyeUI2bLtHF8StU-40">
          <mxGeometry x="55" width="60" height="60" as="geometry" />
        </mxCell>
        <mxCell id="FKIXpGyeUI2bLtHF8StU-43" value="" style="group" vertex="1" connectable="0" parent="1">
          <mxGeometry x="111" y="715" width="170" height="170" as="geometry" />
        </mxCell>
        <mxCell id="FKIXpGyeUI2bLtHF8StU-44" value="дверь" style="ellipse;whiteSpace=wrap;html=1;aspect=fixed;" vertex="1" parent="FKIXpGyeUI2bLtHF8StU-43">
          <mxGeometry width="170" height="170" as="geometry" />
        </mxCell>
        <mxCell id="FKIXpGyeUI2bLtHF8StU-45" value="7" style="ellipse;whiteSpace=wrap;html=1;aspect=fixed;" vertex="1" parent="FKIXpGyeUI2bLtHF8StU-43">
          <mxGeometry x="55" width="60" height="60" as="geometry" />
        </mxCell>
        <mxCell id="FKIXpGyeUI2bLtHF8StU-46" value="" style="group" vertex="1" connectable="0" parent="1">
          <mxGeometry x="546" y="715" width="170" height="170" as="geometry" />
        </mxCell>
        <mxCell id="FKIXpGyeUI2bLtHF8StU-47" value="летание" style="ellipse;whiteSpace=wrap;html=1;aspect=fixed;" vertex="1" parent="FKIXpGyeUI2bLtHF8StU-46">
          <mxGeometry width="170" height="170" as="geometry" />
        </mxCell>
        <mxCell id="FKIXpGyeUI2bLtHF8StU-48" value="8" style="ellipse;whiteSpace=wrap;html=1;aspect=fixed;" vertex="1" parent="FKIXpGyeUI2bLtHF8StU-46">
          <mxGeometry x="55" width="60" height="60" as="geometry" />
        </mxCell>
        <mxCell id="FKIXpGyeUI2bLtHF8StU-49" value="" style="group" vertex="1" connectable="0" parent="1">
          <mxGeometry x="111" y="925" width="170" height="170" as="geometry" />
        </mxCell>
        <mxCell id="FKIXpGyeUI2bLtHF8StU-50" value="тьма" style="ellipse;whiteSpace=wrap;html=1;aspect=fixed;" vertex="1" parent="FKIXpGyeUI2bLtHF8StU-49">
          <mxGeometry width="170" height="170" as="geometry" />
        </mxCell>
        <mxCell id="FKIXpGyeUI2bLtHF8StU-51" value="9" style="ellipse;whiteSpace=wrap;html=1;aspect=fixed;" vertex="1" parent="FKIXpGyeUI2bLtHF8StU-49">
          <mxGeometry x="55" width="60" height="60" as="geometry" />
        </mxCell>
        <mxCell id="FKIXpGyeUI2bLtHF8StU-52" value="" style="group" vertex="1" connectable="0" parent="1">
          <mxGeometry x="546" y="925" width="170" height="170" as="geometry" />
        </mxCell>
        <mxCell id="FKIXpGyeUI2bLtHF8StU-53" value="школа" style="ellipse;whiteSpace=wrap;html=1;aspect=fixed;" vertex="1" parent="FKIXpGyeUI2bLtHF8StU-52">
          <mxGeometry width="170" height="170" as="geometry" />
        </mxCell>
        <mxCell id="FKIXpGyeUI2bLtHF8StU-54" value="10" style="ellipse;whiteSpace=wrap;html=1;aspect=fixed;" vertex="1" parent="FKIXpGyeUI2bLtHF8StU-52">
          <mxGeometry x="55" width="60" height="60" as="geometry" />
        </mxCell>
        <mxCell id="FKIXpGyeUI2bLtHF8StU-55" value="" style="group" vertex="1" connectable="0" parent="1">
          <mxGeometry x="111" y="75" width="170" height="170" as="geometry" />
        </mxCell>
        <mxCell id="FKIXpGyeUI2bLtHF8StU-56" value="&lt;span style=&quot;font-size: 14px;&quot;&gt;вода&lt;/span&gt;" style="ellipse;whiteSpace=wrap;html=1;aspect=fixed;" vertex="1" parent="FKIXpGyeUI2bLtHF8StU-55">
          <mxGeometry width="170" height="170" as="geometry" />
        </mxCell>
        <mxCell id="FKIXpGyeUI2bLtHF8StU-57" value="&lt;font style=&quot;font-size: 14px;&quot;&gt;1&lt;/font&gt;" style="ellipse;whiteSpace=wrap;html=1;aspect=fixed;" vertex="1" parent="FKIXpGyeUI2bLtHF8StU-55">
          <mxGeometry x="55" width="60" height="60" as="geometry" />
        </mxCell>
        <mxCell id="FKIXpGyeUI2bLtHF8StU-58" value="" style="group" vertex="1" connectable="0" parent="1">
          <mxGeometry x="546" y="75" width="170" height="170" as="geometry" />
        </mxCell>
        <mxCell id="FKIXpGyeUI2bLtHF8StU-59" value="змея" style="ellipse;whiteSpace=wrap;html=1;aspect=fixed;" vertex="1" parent="FKIXpGyeUI2bLtHF8StU-58">
          <mxGeometry width="170" height="170" as="geometry" />
        </mxCell>
        <mxCell id="FKIXpGyeUI2bLtHF8StU-60" value="2" style="ellipse;whiteSpace=wrap;html=1;aspect=fixed;" vertex="1" parent="FKIXpGyeUI2bLtHF8StU-58">
          <mxGeometry x="55" width="60" height="60" as="geometry" />
        </mxCell>
        <mxCell id="Bnm_xy_murZtZVjUWR6u-1" value="&lt;font face=&quot;Times New Roman&quot; style=&quot;font-size: 50px;&quot;&gt;Символы&lt;/font&gt;" style="text;html=1;align=center;verticalAlign=middle;resizable=0;points=[];autosize=1;strokeColor=none;fillColor=none;" vertex="1" parent="1">
          <mxGeometry x="303" y="28" width="220" height="70" as="geometry" />
        </mxCell>
      </root>
    </mxGraphModel>
  </diagram>
  <diagram id="WauSsConqZK7SkVooSx5" name="Characters">
    <mxGraphModel dx="1866" dy="1140" grid="1" gridSize="10" guides="1" tooltips="1" connect="1" arrows="1" fold="1" page="1" pageScale="1" pageWidth="827" pageHeight="1169" math="0" shadow="0">
      <root>
        <mxCell id="0" />
        <mxCell id="1" parent="0" />
        <mxCell id="LXOP7kq9kVxgd85GXpVn-18" value="&lt;span style=&quot;font-size: 14px;&quot;&gt;Я&lt;/span&gt;" style="rhombus;whiteSpace=wrap;html=1;" vertex="1" parent="1">
          <mxGeometry x="70" y="5" width="200" height="200" as="geometry" />
        </mxCell>
        <mxCell id="LXOP7kq9kVxgd85GXpVn-19" value="&lt;font style=&quot;font-size: 14px;&quot;&gt;1&lt;/font&gt;" style="rhombus;whiteSpace=wrap;html=1;" vertex="1" parent="1">
          <mxGeometry x="130" y="5" width="80" height="80" as="geometry" />
        </mxCell>
        <mxCell id="LXOP7kq9kVxgd85GXpVn-20" value="Неизвестная женщина" style="rhombus;whiteSpace=wrap;html=1;" vertex="1" parent="1">
          <mxGeometry x="550" y="5" width="200" height="200" as="geometry" />
        </mxCell>
        <mxCell id="LXOP7kq9kVxgd85GXpVn-21" value="2" style="rhombus;whiteSpace=wrap;html=1;" vertex="1" parent="1">
          <mxGeometry x="610" y="5" width="80" height="80" as="geometry" />
        </mxCell>
        <mxCell id="LXOP7kq9kVxgd85GXpVn-22" value="&lt;font style=&quot;font-size: 14px;&quot;&gt;Преследователь&lt;/font&gt;" style="rhombus;whiteSpace=wrap;html=1;" vertex="1" parent="1">
          <mxGeometry x="70" y="245" width="200" height="200" as="geometry" />
        </mxCell>
        <mxCell id="LXOP7kq9kVxgd85GXpVn-23" value="3" style="rhombus;whiteSpace=wrap;html=1;" vertex="1" parent="1">
          <mxGeometry x="130" y="245" width="80" height="80" as="geometry" />
        </mxCell>
        <mxCell id="LXOP7kq9kVxgd85GXpVn-24" value="&lt;font style=&quot;font-size: 14px;&quot;&gt;Учитель&lt;/font&gt;" style="rhombus;whiteSpace=wrap;html=1;" vertex="1" parent="1">
          <mxGeometry x="550" y="245" width="200" height="200" as="geometry" />
        </mxCell>
        <mxCell id="LXOP7kq9kVxgd85GXpVn-25" value="4" style="rhombus;whiteSpace=wrap;html=1;" vertex="1" parent="1">
          <mxGeometry x="610" y="245" width="80" height="80" as="geometry" />
        </mxCell>
        <mxCell id="LXOP7kq9kVxgd85GXpVn-26" value="Огонь" style="rhombus;whiteSpace=wrap;html=1;" vertex="1" parent="1">
          <mxGeometry x="70" y="495" width="200" height="200" as="geometry" />
        </mxCell>
        <mxCell id="LXOP7kq9kVxgd85GXpVn-27" value="5" style="rhombus;whiteSpace=wrap;html=1;" vertex="1" parent="1">
          <mxGeometry x="130" y="495" width="80" height="80" as="geometry" />
        </mxCell>
        <mxCell id="LXOP7kq9kVxgd85GXpVn-28" value="Друг" style="rhombus;whiteSpace=wrap;html=1;" vertex="1" parent="1">
          <mxGeometry x="550" y="495" width="200" height="200" as="geometry" />
        </mxCell>
        <mxCell id="LXOP7kq9kVxgd85GXpVn-29" value="6" style="rhombus;whiteSpace=wrap;html=1;" vertex="1" parent="1">
          <mxGeometry x="610" y="495" width="80" height="80" as="geometry" />
        </mxCell>
        <mxCell id="LXOP7kq9kVxgd85GXpVn-30" value="Мать" style="rhombus;whiteSpace=wrap;html=1;" vertex="1" parent="1">
          <mxGeometry x="70" y="745" width="200" height="200" as="geometry" />
        </mxCell>
        <mxCell id="LXOP7kq9kVxgd85GXpVn-31" value="7" style="rhombus;whiteSpace=wrap;html=1;" vertex="1" parent="1">
          <mxGeometry x="130" y="745" width="80" height="80" as="geometry" />
        </mxCell>
        <mxCell id="LXOP7kq9kVxgd85GXpVn-32" value="Змея" style="rhombus;whiteSpace=wrap;html=1;" vertex="1" parent="1">
          <mxGeometry x="550" y="745" width="200" height="200" as="geometry" />
        </mxCell>
        <mxCell id="LXOP7kq9kVxgd85GXpVn-33" value="8" style="rhombus;whiteSpace=wrap;html=1;" vertex="1" parent="1">
          <mxGeometry x="610" y="745" width="80" height="80" as="geometry" />
        </mxCell>
        <mxCell id="LXOP7kq9kVxgd85GXpVn-34" value="Жених" style="rhombus;whiteSpace=wrap;html=1;" vertex="1" parent="1">
          <mxGeometry x="70" y="965" width="200" height="200" as="geometry" />
        </mxCell>
        <mxCell id="LXOP7kq9kVxgd85GXpVn-35" value="9" style="rhombus;whiteSpace=wrap;html=1;" vertex="1" parent="1">
          <mxGeometry x="130" y="965" width="80" height="80" as="geometry" />
        </mxCell>
        <mxCell id="LXOP7kq9kVxgd85GXpVn-36" value="Неизвестный ребёнок" style="rhombus;whiteSpace=wrap;html=1;" vertex="1" parent="1">
          <mxGeometry x="550" y="965" width="200" height="200" as="geometry" />
        </mxCell>
        <mxCell id="LXOP7kq9kVxgd85GXpVn-37" value="10" style="rhombus;whiteSpace=wrap;html=1;" vertex="1" parent="1">
          <mxGeometry x="610" y="965" width="80" height="80" as="geometry" />
        </mxCell>
        <mxCell id="z-YXS84HSlypTOJDJdsl-1" value="&lt;font face=&quot;Times New Roman&quot; style=&quot;font-size: 50px;&quot;&gt;Персонажи&lt;/font&gt;" style="text;html=1;align=center;verticalAlign=middle;resizable=0;points=[];autosize=1;strokeColor=none;fillColor=none;" vertex="1" parent="1">
          <mxGeometry x="284" width="260" height="70" as="geometry" />
        </mxCell>
      </root>
    </mxGraphModel>
  </diagram>
  <diagram id="QHelk1fQCG0IaNNpPPfW" name="Dream_HAS_Symbol">
    <mxGraphModel dx="2666" dy="1629" grid="1" gridSize="10" guides="1" tooltips="1" connect="1" arrows="1" fold="1" page="1" pageScale="1" pageWidth="827" pageHeight="1169" math="0" shadow="0">
      <root>
        <mxCell id="0" />
        <mxCell id="1" parent="0" />
        <mxCell id="u5B1O7X_yJzYny23YvfG-1" value="" style="group" vertex="1" connectable="0" parent="1">
          <mxGeometry x="73" y="184" width="130" height="70" as="geometry" />
        </mxCell>
        <mxCell id="u5B1O7X_yJzYny23YvfG-2" value="&lt;span style=&quot;text-align: left;&quot;&gt;Падение в бездну&lt;/span&gt;" style="rounded=0;whiteSpace=wrap;html=1;" vertex="1" parent="u5B1O7X_yJzYny23YvfG-1">
          <mxGeometry width="130" height="70" as="geometry" />
        </mxCell>
        <mxCell id="u5B1O7X_yJzYny23YvfG-3" value="1" style="rounded=0;whiteSpace=wrap;html=1;" vertex="1" parent="u5B1O7X_yJzYny23YvfG-1">
          <mxGeometry x="35" width="60" height="25" as="geometry" />
        </mxCell>
        <mxCell id="u5B1O7X_yJzYny23YvfG-4" value="" style="group" vertex="1" connectable="0" parent="1">
          <mxGeometry x="623" y="184" width="130" height="70" as="geometry" />
        </mxCell>
        <mxCell id="u5B1O7X_yJzYny23YvfG-5" value="&lt;span style=&quot;text-align: left;&quot;&gt;Полёт над городом&lt;/span&gt;" style="rounded=0;whiteSpace=wrap;html=1;" vertex="1" parent="u5B1O7X_yJzYny23YvfG-4">
          <mxGeometry width="130" height="70" as="geometry" />
        </mxCell>
        <mxCell id="u5B1O7X_yJzYny23YvfG-6" value="2" style="rounded=0;whiteSpace=wrap;html=1;" vertex="1" parent="u5B1O7X_yJzYny23YvfG-4">
          <mxGeometry x="35" width="60" height="25" as="geometry" />
        </mxCell>
        <mxCell id="u5B1O7X_yJzYny23YvfG-7" value="" style="group" vertex="1" connectable="0" parent="1">
          <mxGeometry x="73" y="334" width="130" height="70" as="geometry" />
        </mxCell>
        <mxCell id="u5B1O7X_yJzYny23YvfG-8" value="&lt;span style=&quot;text-align: left;&quot;&gt;Погоня&lt;/span&gt;" style="rounded=0;whiteSpace=wrap;html=1;" vertex="1" parent="u5B1O7X_yJzYny23YvfG-7">
          <mxGeometry width="130" height="70" as="geometry" />
        </mxCell>
        <mxCell id="u5B1O7X_yJzYny23YvfG-9" value="3" style="rounded=0;whiteSpace=wrap;html=1;" vertex="1" parent="u5B1O7X_yJzYny23YvfG-7">
          <mxGeometry x="35" width="60" height="25" as="geometry" />
        </mxCell>
        <mxCell id="u5B1O7X_yJzYny23YvfG-10" value="" style="group" vertex="1" connectable="0" parent="1">
          <mxGeometry x="623" y="334" width="130" height="70" as="geometry" />
        </mxCell>
        <mxCell id="u5B1O7X_yJzYny23YvfG-11" value="&lt;span style=&quot;text-align: left;&quot;&gt;Змеиная яма&lt;/span&gt;" style="rounded=0;whiteSpace=wrap;html=1;" vertex="1" parent="u5B1O7X_yJzYny23YvfG-10">
          <mxGeometry width="130" height="70" as="geometry" />
        </mxCell>
        <mxCell id="u5B1O7X_yJzYny23YvfG-12" value="4" style="rounded=0;whiteSpace=wrap;html=1;" vertex="1" parent="u5B1O7X_yJzYny23YvfG-10">
          <mxGeometry x="35" width="60" height="25" as="geometry" />
        </mxCell>
        <mxCell id="u5B1O7X_yJzYny23YvfG-13" value="" style="group" vertex="1" connectable="0" parent="1">
          <mxGeometry x="73" y="704" width="130" height="70" as="geometry" />
        </mxCell>
        <mxCell id="u5B1O7X_yJzYny23YvfG-14" value="&lt;span style=&quot;text-align: left;&quot;&gt;Детство&lt;/span&gt;" style="rounded=0;whiteSpace=wrap;html=1;" vertex="1" parent="u5B1O7X_yJzYny23YvfG-13">
          <mxGeometry width="130" height="70" as="geometry" />
        </mxCell>
        <mxCell id="u5B1O7X_yJzYny23YvfG-15" value="5" style="rounded=0;whiteSpace=wrap;html=1;" vertex="1" parent="u5B1O7X_yJzYny23YvfG-13">
          <mxGeometry x="35" width="60" height="25" as="geometry" />
        </mxCell>
        <mxCell id="u5B1O7X_yJzYny23YvfG-16" value="" style="group" vertex="1" connectable="0" parent="1">
          <mxGeometry x="623" y="524" width="130" height="70" as="geometry" />
        </mxCell>
        <mxCell id="u5B1O7X_yJzYny23YvfG-17" value="&lt;span style=&quot;text-align: left;&quot;&gt;Дом на воде&lt;/span&gt;" style="rounded=0;whiteSpace=wrap;html=1;" vertex="1" parent="u5B1O7X_yJzYny23YvfG-16">
          <mxGeometry width="130" height="70" as="geometry" />
        </mxCell>
        <mxCell id="u5B1O7X_yJzYny23YvfG-18" value="6" style="rounded=0;whiteSpace=wrap;html=1;" vertex="1" parent="u5B1O7X_yJzYny23YvfG-16">
          <mxGeometry x="35" width="60" height="25" as="geometry" />
        </mxCell>
        <mxCell id="u5B1O7X_yJzYny23YvfG-19" value="" style="group" vertex="1" connectable="0" parent="1">
          <mxGeometry x="73" y="894" width="130" height="70" as="geometry" />
        </mxCell>
        <mxCell id="u5B1O7X_yJzYny23YvfG-20" value="&lt;span style=&quot;text-align: left;&quot;&gt;Пожар&lt;/span&gt;" style="rounded=0;whiteSpace=wrap;html=1;" vertex="1" parent="u5B1O7X_yJzYny23YvfG-19">
          <mxGeometry width="130" height="70" as="geometry" />
        </mxCell>
        <mxCell id="u5B1O7X_yJzYny23YvfG-21" value="7" style="rounded=0;whiteSpace=wrap;html=1;" vertex="1" parent="u5B1O7X_yJzYny23YvfG-19">
          <mxGeometry x="35" width="60" height="25" as="geometry" />
        </mxCell>
        <mxCell id="u5B1O7X_yJzYny23YvfG-22" value="" style="group" vertex="1" connectable="0" parent="1">
          <mxGeometry x="623" y="704" width="130" height="70" as="geometry" />
        </mxCell>
        <mxCell id="u5B1O7X_yJzYny23YvfG-23" value="&lt;span style=&quot;text-align: left;&quot;&gt;Свадьба&lt;/span&gt;" style="rounded=0;whiteSpace=wrap;html=1;" vertex="1" parent="u5B1O7X_yJzYny23YvfG-22">
          <mxGeometry width="130" height="70" as="geometry" />
        </mxCell>
        <mxCell id="u5B1O7X_yJzYny23YvfG-24" value="8" style="rounded=0;whiteSpace=wrap;html=1;" vertex="1" parent="u5B1O7X_yJzYny23YvfG-22">
          <mxGeometry x="35" width="60" height="25" as="geometry" />
        </mxCell>
        <mxCell id="u5B1O7X_yJzYny23YvfG-25" value="" style="group" vertex="1" connectable="0" parent="1">
          <mxGeometry x="73" y="494" width="130" height="70" as="geometry" />
        </mxCell>
        <mxCell id="u5B1O7X_yJzYny23YvfG-26" value="&lt;span style=&quot;text-align: left;&quot;&gt;Исчезновение&lt;/span&gt;" style="rounded=0;whiteSpace=wrap;html=1;" vertex="1" parent="u5B1O7X_yJzYny23YvfG-25">
          <mxGeometry width="130" height="70" as="geometry" />
        </mxCell>
        <mxCell id="u5B1O7X_yJzYny23YvfG-27" value="9" style="rounded=0;whiteSpace=wrap;html=1;" vertex="1" parent="u5B1O7X_yJzYny23YvfG-25">
          <mxGeometry x="35" width="60" height="25" as="geometry" />
        </mxCell>
        <mxCell id="u5B1O7X_yJzYny23YvfG-28" value="" style="group" vertex="1" connectable="0" parent="1">
          <mxGeometry x="623" y="884" width="130" height="70" as="geometry" />
        </mxCell>
        <mxCell id="u5B1O7X_yJzYny23YvfG-29" value="&lt;span style=&quot;text-align: left;&quot;&gt;Горы&lt;/span&gt;" style="rounded=0;whiteSpace=wrap;html=1;" vertex="1" parent="u5B1O7X_yJzYny23YvfG-28">
          <mxGeometry width="130" height="70" as="geometry" />
        </mxCell>
        <mxCell id="u5B1O7X_yJzYny23YvfG-30" value="10" style="rounded=0;whiteSpace=wrap;html=1;" vertex="1" parent="u5B1O7X_yJzYny23YvfG-28">
          <mxGeometry x="35" width="60" height="25" as="geometry" />
        </mxCell>
        <mxCell id="T-i-NAsC8q8n6S8bJleG-1" value="" style="group" vertex="1" connectable="0" parent="1">
          <mxGeometry x="313" y="324" width="130" height="110" as="geometry" />
        </mxCell>
        <mxCell id="T-i-NAsC8q8n6S8bJleG-2" value="тьма" style="ellipse;whiteSpace=wrap;html=1;aspect=fixed;" vertex="1" parent="T-i-NAsC8q8n6S8bJleG-1">
          <mxGeometry width="100" height="100" as="geometry" />
        </mxCell>
        <mxCell id="T-i-NAsC8q8n6S8bJleG-3" value="9" style="ellipse;whiteSpace=wrap;html=1;aspect=fixed;" vertex="1" parent="T-i-NAsC8q8n6S8bJleG-1">
          <mxGeometry x="42.05882352941177" width="35.294117647058826" height="35.294117647058826" as="geometry" />
        </mxCell>
        <mxCell id="T-i-NAsC8q8n6S8bJleG-9" value="" style="endArrow=none;html=1;rounded=0;entryX=0;entryY=0.5;entryDx=0;entryDy=0;" edge="1" parent="1" target="T-i-NAsC8q8n6S8bJleG-2">
          <mxGeometry width="50" height="50" relative="1" as="geometry">
            <mxPoint x="203" y="524" as="sourcePoint" />
            <mxPoint x="453" y="434" as="targetPoint" />
            <Array as="points">
              <mxPoint x="263" y="444" />
            </Array>
          </mxGeometry>
        </mxCell>
        <mxCell id="T-i-NAsC8q8n6S8bJleG-10" value="" style="endArrow=none;html=1;rounded=0;" edge="1" parent="1">
          <mxGeometry width="50" height="50" relative="1" as="geometry">
            <mxPoint x="203" y="374" as="sourcePoint" />
            <mxPoint x="313" y="374" as="targetPoint" />
            <Array as="points" />
          </mxGeometry>
        </mxCell>
        <mxCell id="T-i-NAsC8q8n6S8bJleG-11" value="" style="endArrow=none;html=1;rounded=0;" edge="1" parent="1">
          <mxGeometry width="50" height="50" relative="1" as="geometry">
            <mxPoint x="203" y="214" as="sourcePoint" />
            <mxPoint x="313" y="374" as="targetPoint" />
            <Array as="points" />
          </mxGeometry>
        </mxCell>
        <mxCell id="Xl60vOrtZ9rOwfnBmB2s-1" value="" style="group" vertex="1" connectable="0" parent="1">
          <mxGeometry x="443" y="174" width="110" height="100" as="geometry" />
        </mxCell>
        <mxCell id="Xl60vOrtZ9rOwfnBmB2s-2" value="летание" style="ellipse;whiteSpace=wrap;html=1;aspect=fixed;" vertex="1" parent="Xl60vOrtZ9rOwfnBmB2s-1">
          <mxGeometry width="100" height="100" as="geometry" />
        </mxCell>
        <mxCell id="Xl60vOrtZ9rOwfnBmB2s-3" value="8" style="ellipse;whiteSpace=wrap;html=1;aspect=fixed;" vertex="1" parent="Xl60vOrtZ9rOwfnBmB2s-1">
          <mxGeometry x="35.58823529411765" width="35.294117647058826" height="35.294117647058826" as="geometry" />
        </mxCell>
        <mxCell id="Xl60vOrtZ9rOwfnBmB2s-4" value="" style="endArrow=none;html=1;rounded=0;entryX=0;entryY=0.5;entryDx=0;entryDy=0;exitX=0.992;exitY=0.453;exitDx=0;exitDy=0;exitPerimeter=0;" edge="1" parent="1" source="Xl60vOrtZ9rOwfnBmB2s-2" target="u5B1O7X_yJzYny23YvfG-5">
          <mxGeometry width="50" height="50" relative="1" as="geometry">
            <mxPoint x="543" y="224" as="sourcePoint" />
            <mxPoint x="593" y="174" as="targetPoint" />
          </mxGeometry>
        </mxCell>
        <mxCell id="Q72Bn1ysSFD4R29n3tzH-1" value="" style="group" vertex="1" connectable="0" parent="1">
          <mxGeometry x="443" y="324" width="130" height="100" as="geometry" />
        </mxCell>
        <mxCell id="Q72Bn1ysSFD4R29n3tzH-2" value="змея" style="ellipse;whiteSpace=wrap;html=1;aspect=fixed;" vertex="1" parent="Q72Bn1ysSFD4R29n3tzH-1">
          <mxGeometry width="95.4545454545455" height="95.4545454545455" as="geometry" />
        </mxCell>
        <mxCell id="Q72Bn1ysSFD4R29n3tzH-3" value="2" style="ellipse;whiteSpace=wrap;html=1;aspect=fixed;" vertex="1" parent="Q72Bn1ysSFD4R29n3tzH-1">
          <mxGeometry x="42.05882352941177" width="33.68983957219252" height="33.68983957219252" as="geometry" />
        </mxCell>
        <mxCell id="Q72Bn1ysSFD4R29n3tzH-4" value="" style="endArrow=none;html=1;rounded=0;entryX=0;entryY=0.5;entryDx=0;entryDy=0;exitX=1.002;exitY=0.476;exitDx=0;exitDy=0;exitPerimeter=0;" edge="1" parent="1" source="Q72Bn1ysSFD4R29n3tzH-2">
          <mxGeometry width="50" height="50" relative="1" as="geometry">
            <mxPoint x="541" y="369.5" as="sourcePoint" />
            <mxPoint x="623" y="368.5" as="targetPoint" />
          </mxGeometry>
        </mxCell>
        <mxCell id="KwgNWLjx2L_5Q4igoIco-1" value="" style="group" vertex="1" connectable="0" parent="1">
          <mxGeometry x="293" y="684" width="114" height="115" as="geometry" />
        </mxCell>
        <mxCell id="KwgNWLjx2L_5Q4igoIco-2" value="школа" style="ellipse;whiteSpace=wrap;html=1;aspect=fixed;" vertex="1" parent="KwgNWLjx2L_5Q4igoIco-1">
          <mxGeometry width="113.99999999999999" height="113.99999999999999" as="geometry" />
        </mxCell>
        <mxCell id="KwgNWLjx2L_5Q4igoIco-3" value="10" style="ellipse;whiteSpace=wrap;html=1;aspect=fixed;" vertex="1" parent="KwgNWLjx2L_5Q4igoIco-1">
          <mxGeometry x="36.88235294117647" width="40.23529411764706" height="40.23529411764706" as="geometry" />
        </mxCell>
        <mxCell id="KwgNWLjx2L_5Q4igoIco-4" value="" style="endArrow=none;html=1;rounded=0;entryX=-0.007;entryY=0.494;entryDx=0;entryDy=0;exitX=1.002;exitY=0.476;exitDx=0;exitDy=0;exitPerimeter=0;entryPerimeter=0;" edge="1" parent="1" target="KwgNWLjx2L_5Q4igoIco-2">
          <mxGeometry width="50" height="50" relative="1" as="geometry">
            <mxPoint x="203" y="741.1700000000001" as="sourcePoint" />
            <mxPoint x="287" y="740.6700000000001" as="targetPoint" />
          </mxGeometry>
        </mxCell>
        <mxCell id="A44wjRNg0cyKB08VUeSC-1" value="" style="group" vertex="1" connectable="0" parent="1">
          <mxGeometry x="444" y="514" width="109" height="95" as="geometry" />
        </mxCell>
        <mxCell id="A44wjRNg0cyKB08VUeSC-2" value="&lt;span style=&quot;font-size: 14px;&quot;&gt;вода&lt;/span&gt;" style="ellipse;whiteSpace=wrap;html=1;aspect=fixed;" vertex="1" parent="A44wjRNg0cyKB08VUeSC-1">
          <mxGeometry width="95" height="95" as="geometry" />
        </mxCell>
        <mxCell id="A44wjRNg0cyKB08VUeSC-3" value="&lt;font style=&quot;font-size: 14px;&quot;&gt;1&lt;/font&gt;" style="ellipse;whiteSpace=wrap;html=1;aspect=fixed;" vertex="1" parent="A44wjRNg0cyKB08VUeSC-1">
          <mxGeometry x="35.26470588235294" width="33.529411764705884" height="33.529411764705884" as="geometry" />
        </mxCell>
        <mxCell id="wGj0-w3YG-ntlMx5f57R-1" value="" style="group" vertex="1" connectable="0" parent="1">
          <mxGeometry x="444" y="694" width="189" height="190" as="geometry" />
        </mxCell>
        <mxCell id="wGj0-w3YG-ntlMx5f57R-6" value="" style="endArrow=none;html=1;rounded=0;" edge="1" parent="wGj0-w3YG-ntlMx5f57R-1" source="OuQQYpAIm0oO23gHW3D6-2">
          <mxGeometry width="50" height="50" relative="1" as="geometry">
            <mxPoint x="98.99999999999997" y="47.75" as="sourcePoint" />
            <mxPoint x="179" y="47" as="targetPoint" />
          </mxGeometry>
        </mxCell>
        <mxCell id="OuQQYpAIm0oO23gHW3D6-1" value="" style="group" vertex="1" connectable="0" parent="wGj0-w3YG-ntlMx5f57R-1">
          <mxGeometry y="-5" width="109" height="105" as="geometry" />
        </mxCell>
        <mxCell id="OuQQYpAIm0oO23gHW3D6-2" value="дом" style="ellipse;whiteSpace=wrap;html=1;aspect=fixed;" vertex="1" parent="OuQQYpAIm0oO23gHW3D6-1">
          <mxGeometry width="105" height="105" as="geometry" />
        </mxCell>
        <mxCell id="OuQQYpAIm0oO23gHW3D6-3" value="5" style="ellipse;whiteSpace=wrap;html=1;aspect=fixed;" vertex="1" parent="OuQQYpAIm0oO23gHW3D6-1">
          <mxGeometry x="35.26470588235294" width="37.05882352941177" height="37.05882352941177" as="geometry" />
        </mxCell>
        <mxCell id="wGj0-w3YG-ntlMx5f57R-5" value="" style="endArrow=none;html=1;rounded=0;entryX=0;entryY=0.5;entryDx=0;entryDy=0;exitX=1.002;exitY=0.476;exitDx=0;exitDy=0;exitPerimeter=0;" edge="1" parent="1">
          <mxGeometry width="50" height="50" relative="1" as="geometry">
            <mxPoint x="539" y="558.79" as="sourcePoint" />
            <mxPoint x="623" y="558.29" as="targetPoint" />
          </mxGeometry>
        </mxCell>
        <mxCell id="wGj0-w3YG-ntlMx5f57R-2" value="&lt;div&gt;огонь&lt;/div&gt;" style="ellipse;whiteSpace=wrap;html=1;aspect=fixed;" vertex="1" parent="1">
          <mxGeometry x="293" y="884" width="110" height="110" as="geometry" />
        </mxCell>
        <mxCell id="wGj0-w3YG-ntlMx5f57R-3" value="4" style="ellipse;whiteSpace=wrap;html=1;aspect=fixed;" vertex="1" parent="1">
          <mxGeometry x="328.9994117647059" y="884" width="38" height="38" as="geometry" />
        </mxCell>
        <mxCell id="wGj0-w3YG-ntlMx5f57R-7" value="" style="endArrow=none;html=1;rounded=0;entryX=0.001;entryY=0.417;entryDx=0;entryDy=0;exitX=1.002;exitY=0.476;exitDx=0;exitDy=0;exitPerimeter=0;entryPerimeter=0;" edge="1" parent="1" target="wGj0-w3YG-ntlMx5f57R-2">
          <mxGeometry width="50" height="50" relative="1" as="geometry">
            <mxPoint x="203" y="929.2600000000001" as="sourcePoint" />
            <mxPoint x="292" y="928.09" as="targetPoint" />
          </mxGeometry>
        </mxCell>
        <mxCell id="nn9GuKC8ZkSHipPB9PSp-1" value="" style="group" vertex="1" connectable="0" parent="1">
          <mxGeometry x="443" y="874" width="130" height="110" as="geometry" />
        </mxCell>
        <mxCell id="nn9GuKC8ZkSHipPB9PSp-2" value="мост" style="ellipse;whiteSpace=wrap;html=1;aspect=fixed;" vertex="1" parent="nn9GuKC8ZkSHipPB9PSp-1">
          <mxGeometry width="109.41489361702128" height="109.41489361702128" as="geometry" />
        </mxCell>
        <mxCell id="nn9GuKC8ZkSHipPB9PSp-3" value="6" style="ellipse;whiteSpace=wrap;html=1;aspect=fixed;" vertex="1" parent="nn9GuKC8ZkSHipPB9PSp-1">
          <mxGeometry x="42.05882352941177" width="38.61702127659574" height="38.61702127659574" as="geometry" />
        </mxCell>
        <mxCell id="nn9GuKC8ZkSHipPB9PSp-4" value="" style="endArrow=none;html=1;rounded=0;" edge="1" parent="1">
          <mxGeometry width="50" height="50" relative="1" as="geometry">
            <mxPoint x="549" y="929.38" as="sourcePoint" />
            <mxPoint x="623" y="928.38" as="targetPoint" />
          </mxGeometry>
        </mxCell>
        <mxCell id="FVubrCSgCO9G-CpvmTCr-1" value="&lt;font style=&quot;font-size: 45px;&quot; face=&quot;Times New Roman&quot;&gt;Сны и символы&lt;/font&gt;" style="text;html=1;align=center;verticalAlign=middle;resizable=0;points=[];autosize=1;strokeColor=none;fillColor=none;" vertex="1" parent="1">
          <mxGeometry x="253" y="30" width="320" height="70" as="geometry" />
        </mxCell>
      </root>
    </mxGraphModel>
  </diagram>
  <diagram id="KLYQtfTxAx2LB5K3vMWj" name="Character_APPEARS_IN_Dream">
    <mxGraphModel dx="3110" dy="1900" grid="1" gridSize="10" guides="1" tooltips="1" connect="1" arrows="1" fold="1" page="1" pageScale="1" pageWidth="1169" pageHeight="1654" math="0" shadow="0">
      <root>
        <mxCell id="0" />
        <mxCell id="1" parent="0" />
        <mxCell id="3Lt3CKSjRMCIsp2zvB6D-1" value="&lt;span style=&quot;font-size: 14px;&quot;&gt;Я&lt;/span&gt;" style="rhombus;whiteSpace=wrap;html=1;" vertex="1" parent="1">
          <mxGeometry x="40" y="280" width="200" height="200" as="geometry" />
        </mxCell>
        <mxCell id="3Lt3CKSjRMCIsp2zvB6D-2" value="&lt;font style=&quot;font-size: 14px;&quot;&gt;1&lt;/font&gt;" style="rhombus;whiteSpace=wrap;html=1;" vertex="1" parent="1">
          <mxGeometry x="100" y="280" width="80" height="80" as="geometry" />
        </mxCell>
        <mxCell id="eaE8L1mTURiurb2bW5Eu-4" style="edgeStyle=orthogonalEdgeStyle;rounded=0;orthogonalLoop=1;jettySize=auto;html=1;exitX=0;exitY=0.5;exitDx=0;exitDy=0;entryX=0.25;entryY=0;entryDx=0;entryDy=0;" edge="1" parent="1" source="3Lt3CKSjRMCIsp2zvB6D-3" target="DGbxmrA4Y94JSj6cVF4s-3">
          <mxGeometry relative="1" as="geometry" />
        </mxCell>
        <mxCell id="3Lt3CKSjRMCIsp2zvB6D-3" value="Неизвестная женщина" style="rhombus;whiteSpace=wrap;html=1;" vertex="1" parent="1">
          <mxGeometry x="930" y="290" width="200" height="200" as="geometry" />
        </mxCell>
        <mxCell id="3Lt3CKSjRMCIsp2zvB6D-4" value="2" style="rhombus;whiteSpace=wrap;html=1;" vertex="1" parent="1">
          <mxGeometry x="990" y="290" width="80" height="80" as="geometry" />
        </mxCell>
        <mxCell id="3Lt3CKSjRMCIsp2zvB6D-5" value="&lt;font style=&quot;font-size: 14px;&quot;&gt;Преследователь&lt;/font&gt;" style="rhombus;whiteSpace=wrap;html=1;" vertex="1" parent="1">
          <mxGeometry x="40" y="520" width="200" height="200" as="geometry" />
        </mxCell>
        <mxCell id="3Lt3CKSjRMCIsp2zvB6D-6" value="3" style="rhombus;whiteSpace=wrap;html=1;" vertex="1" parent="1">
          <mxGeometry x="100" y="520" width="80" height="80" as="geometry" />
        </mxCell>
        <mxCell id="eaE8L1mTURiurb2bW5Eu-6" style="edgeStyle=orthogonalEdgeStyle;rounded=0;orthogonalLoop=1;jettySize=auto;html=1;exitX=0;exitY=0.5;exitDx=0;exitDy=0;entryX=0.25;entryY=0;entryDx=0;entryDy=0;" edge="1" parent="1" source="3Lt3CKSjRMCIsp2zvB6D-7" target="98ukzOstAlU-158vZe_R-3">
          <mxGeometry relative="1" as="geometry" />
        </mxCell>
        <mxCell id="3Lt3CKSjRMCIsp2zvB6D-7" value="&lt;font style=&quot;font-size: 14px;&quot;&gt;Учитель&lt;/font&gt;" style="rhombus;whiteSpace=wrap;html=1;" vertex="1" parent="1">
          <mxGeometry x="930" y="760" width="200" height="200" as="geometry" />
        </mxCell>
        <mxCell id="3Lt3CKSjRMCIsp2zvB6D-8" value="4" style="rhombus;whiteSpace=wrap;html=1;" vertex="1" parent="1">
          <mxGeometry x="990" y="760" width="80" height="80" as="geometry" />
        </mxCell>
        <mxCell id="eaE8L1mTURiurb2bW5Eu-11" style="edgeStyle=orthogonalEdgeStyle;rounded=0;orthogonalLoop=1;jettySize=auto;html=1;exitX=1;exitY=0.5;exitDx=0;exitDy=0;entryX=0;entryY=0.5;entryDx=0;entryDy=0;" edge="1" parent="1" source="3Lt3CKSjRMCIsp2zvB6D-9" target="lnV6irgytfrv8mJdDunR-2">
          <mxGeometry relative="1" as="geometry" />
        </mxCell>
        <mxCell id="3Lt3CKSjRMCIsp2zvB6D-9" value="Огонь" style="rhombus;whiteSpace=wrap;html=1;" vertex="1" parent="1">
          <mxGeometry x="40" y="770" width="200" height="200" as="geometry" />
        </mxCell>
        <mxCell id="3Lt3CKSjRMCIsp2zvB6D-10" value="5" style="rhombus;whiteSpace=wrap;html=1;" vertex="1" parent="1">
          <mxGeometry x="100" y="770" width="80" height="80" as="geometry" />
        </mxCell>
        <mxCell id="eaE8L1mTURiurb2bW5Eu-10" style="edgeStyle=orthogonalEdgeStyle;rounded=0;orthogonalLoop=1;jettySize=auto;html=1;exitX=1;exitY=0.5;exitDx=0;exitDy=0;" edge="1" parent="1" source="3Lt3CKSjRMCIsp2zvB6D-11">
          <mxGeometry relative="1" as="geometry">
            <mxPoint x="310" y="1100.5263157894738" as="targetPoint" />
          </mxGeometry>
        </mxCell>
        <mxCell id="3Lt3CKSjRMCIsp2zvB6D-11" value="Друг" style="rhombus;whiteSpace=wrap;html=1;" vertex="1" parent="1">
          <mxGeometry x="40" y="1000" width="200" height="200" as="geometry" />
        </mxCell>
        <mxCell id="3Lt3CKSjRMCIsp2zvB6D-12" value="6" style="rhombus;whiteSpace=wrap;html=1;" vertex="1" parent="1">
          <mxGeometry x="100" y="1000" width="80" height="80" as="geometry" />
        </mxCell>
        <mxCell id="3Lt3CKSjRMCIsp2zvB6D-13" value="Мать" style="rhombus;whiteSpace=wrap;html=1;" vertex="1" parent="1">
          <mxGeometry x="930" y="1015" width="200" height="200" as="geometry" />
        </mxCell>
        <mxCell id="3Lt3CKSjRMCIsp2zvB6D-14" value="7" style="rhombus;whiteSpace=wrap;html=1;" vertex="1" parent="1">
          <mxGeometry x="990" y="1015" width="80" height="80" as="geometry" />
        </mxCell>
        <mxCell id="3Lt3CKSjRMCIsp2zvB6D-15" value="Змея" style="rhombus;whiteSpace=wrap;html=1;" vertex="1" parent="1">
          <mxGeometry x="40" y="1250" width="200" height="200" as="geometry" />
        </mxCell>
        <mxCell id="3Lt3CKSjRMCIsp2zvB6D-16" value="8" style="rhombus;whiteSpace=wrap;html=1;" vertex="1" parent="1">
          <mxGeometry x="100" y="1250" width="80" height="80" as="geometry" />
        </mxCell>
        <mxCell id="3Lt3CKSjRMCIsp2zvB6D-17" value="Жених" style="rhombus;whiteSpace=wrap;html=1;" vertex="1" parent="1">
          <mxGeometry x="920" y="540" width="200" height="200" as="geometry" />
        </mxCell>
        <mxCell id="3Lt3CKSjRMCIsp2zvB6D-18" value="9" style="rhombus;whiteSpace=wrap;html=1;" vertex="1" parent="1">
          <mxGeometry x="980" y="540" width="80" height="80" as="geometry" />
        </mxCell>
        <mxCell id="eaE8L1mTURiurb2bW5Eu-8" style="edgeStyle=orthogonalEdgeStyle;rounded=0;orthogonalLoop=1;jettySize=auto;html=1;exitX=0;exitY=0.5;exitDx=0;exitDy=0;" edge="1" parent="1" source="3Lt3CKSjRMCIsp2zvB6D-19">
          <mxGeometry relative="1" as="geometry">
            <mxPoint x="900" y="1350" as="targetPoint" />
          </mxGeometry>
        </mxCell>
        <mxCell id="3Lt3CKSjRMCIsp2zvB6D-19" value="Неизвестный ребёнок" style="rhombus;whiteSpace=wrap;html=1;" vertex="1" parent="1">
          <mxGeometry x="930" y="1250" width="200" height="200" as="geometry" />
        </mxCell>
        <mxCell id="3Lt3CKSjRMCIsp2zvB6D-20" value="10" style="rhombus;whiteSpace=wrap;html=1;" vertex="1" parent="1">
          <mxGeometry x="990" y="1250" width="80" height="80" as="geometry" />
        </mxCell>
        <mxCell id="hDwUktuh5jnSDOknOctC-1" value="" style="group" vertex="1" connectable="0" parent="1">
          <mxGeometry x="320" y="310" width="230" height="120" as="geometry" />
        </mxCell>
        <mxCell id="hDwUktuh5jnSDOknOctC-2" value="&lt;span style=&quot;text-align: left;&quot;&gt;Падение в бездну&lt;/span&gt;" style="rounded=0;whiteSpace=wrap;html=1;" vertex="1" parent="hDwUktuh5jnSDOknOctC-1">
          <mxGeometry width="230" height="120" as="geometry" />
        </mxCell>
        <mxCell id="hDwUktuh5jnSDOknOctC-3" value="1" style="rounded=0;whiteSpace=wrap;html=1;" vertex="1" parent="hDwUktuh5jnSDOknOctC-1">
          <mxGeometry x="61.92307692307692" width="106.15384615384615" height="42.857142857142854" as="geometry" />
        </mxCell>
        <mxCell id="kH7D1sW3cfojQszVXGcr-1" value="" style="group" vertex="1" connectable="0" parent="1">
          <mxGeometry x="320" y="550" width="230" height="120" as="geometry" />
        </mxCell>
        <mxCell id="kH7D1sW3cfojQszVXGcr-2" value="&lt;span style=&quot;text-align: left;&quot;&gt;Погоня&lt;/span&gt;" style="rounded=0;whiteSpace=wrap;html=1;" vertex="1" parent="kH7D1sW3cfojQszVXGcr-1">
          <mxGeometry width="230" height="120" as="geometry" />
        </mxCell>
        <mxCell id="kH7D1sW3cfojQszVXGcr-3" value="3" style="rounded=0;whiteSpace=wrap;html=1;" vertex="1" parent="kH7D1sW3cfojQszVXGcr-1">
          <mxGeometry x="61.92307692307692" width="106.15384615384615" height="42.857142857142854" as="geometry" />
        </mxCell>
        <mxCell id="DGbxmrA4Y94JSj6cVF4s-1" value="" style="group" vertex="1" connectable="0" parent="1">
          <mxGeometry x="670" y="470" width="200" height="120" as="geometry" />
        </mxCell>
        <mxCell id="DGbxmrA4Y94JSj6cVF4s-2" value="&lt;span style=&quot;text-align: left;&quot;&gt;Свадьба&lt;/span&gt;" style="rounded=0;whiteSpace=wrap;html=1;" vertex="1" parent="DGbxmrA4Y94JSj6cVF4s-1">
          <mxGeometry width="200" height="120" as="geometry" />
        </mxCell>
        <mxCell id="DGbxmrA4Y94JSj6cVF4s-3" value="8" style="rounded=0;whiteSpace=wrap;html=1;" vertex="1" parent="DGbxmrA4Y94JSj6cVF4s-1">
          <mxGeometry x="53.84615384615385" width="92.30769230769232" height="42.857142857142854" as="geometry" />
        </mxCell>
        <mxCell id="98ukzOstAlU-158vZe_R-1" value="" style="group" vertex="1" connectable="0" parent="1">
          <mxGeometry x="650" y="922" width="210" height="138" as="geometry" />
        </mxCell>
        <mxCell id="98ukzOstAlU-158vZe_R-2" value="&lt;span style=&quot;text-align: left;&quot;&gt;Детство&lt;/span&gt;" style="rounded=0;whiteSpace=wrap;html=1;" vertex="1" parent="98ukzOstAlU-158vZe_R-1">
          <mxGeometry width="210" height="138" as="geometry" />
        </mxCell>
        <mxCell id="98ukzOstAlU-158vZe_R-3" value="5" style="rounded=0;whiteSpace=wrap;html=1;" vertex="1" parent="98ukzOstAlU-158vZe_R-1">
          <mxGeometry x="56.53846153846154" width="96.92307692307692" height="49.28571428571429" as="geometry" />
        </mxCell>
        <mxCell id="lnV6irgytfrv8mJdDunR-1" value="" style="group" vertex="1" connectable="0" parent="1">
          <mxGeometry x="310" y="810" width="220" height="120" as="geometry" />
        </mxCell>
        <mxCell id="lnV6irgytfrv8mJdDunR-2" value="&lt;span style=&quot;text-align: left;&quot;&gt;Пожар&lt;/span&gt;" style="rounded=0;whiteSpace=wrap;html=1;" vertex="1" parent="lnV6irgytfrv8mJdDunR-1">
          <mxGeometry width="220" height="120" as="geometry" />
        </mxCell>
        <mxCell id="lnV6irgytfrv8mJdDunR-3" value="7" style="rounded=0;whiteSpace=wrap;html=1;" vertex="1" parent="lnV6irgytfrv8mJdDunR-1">
          <mxGeometry x="47.5" width="125" height="40" as="geometry" />
        </mxCell>
        <mxCell id="pEpQcRhquTvUx040mwn7-1" value="" style="group" vertex="1" connectable="0" parent="1">
          <mxGeometry x="310" y="1030" width="240" height="130" as="geometry" />
        </mxCell>
        <mxCell id="pEpQcRhquTvUx040mwn7-2" value="&lt;span style=&quot;text-align: left;&quot;&gt;Исчезновение&lt;/span&gt;" style="rounded=0;whiteSpace=wrap;html=1;" vertex="1" parent="pEpQcRhquTvUx040mwn7-1">
          <mxGeometry width="220" height="130" as="geometry" />
        </mxCell>
        <mxCell id="pEpQcRhquTvUx040mwn7-3" value="9" style="rounded=0;whiteSpace=wrap;html=1;" vertex="1" parent="pEpQcRhquTvUx040mwn7-1">
          <mxGeometry x="50" width="120" height="40" as="geometry" />
        </mxCell>
        <mxCell id="IYPOppxxPd-9olNBARrC-1" value="" style="group" vertex="1" connectable="0" parent="1">
          <mxGeometry x="280" y="1340" width="270" height="70" as="geometry" />
        </mxCell>
        <mxCell id="IYPOppxxPd-9olNBARrC-2" value="&lt;span style=&quot;text-align: left;&quot;&gt;Змеиная яма&lt;/span&gt;" style="rounded=0;whiteSpace=wrap;html=1;" vertex="1" parent="IYPOppxxPd-9olNBARrC-1">
          <mxGeometry y="-70" width="270" height="140" as="geometry" />
        </mxCell>
        <mxCell id="eaE8L1mTURiurb2bW5Eu-1" value="" style="group" vertex="1" connectable="0" parent="1">
          <mxGeometry x="680" y="1270" width="220" height="140" as="geometry" />
        </mxCell>
        <mxCell id="eaE8L1mTURiurb2bW5Eu-2" value="&lt;span style=&quot;text-align: left;&quot;&gt;Дом на воде&lt;/span&gt;" style="rounded=0;whiteSpace=wrap;html=1;" vertex="1" parent="eaE8L1mTURiurb2bW5Eu-1">
          <mxGeometry width="220" height="140" as="geometry" />
        </mxCell>
        <mxCell id="eaE8L1mTURiurb2bW5Eu-3" value="6" style="rounded=0;whiteSpace=wrap;html=1;" vertex="1" parent="eaE8L1mTURiurb2bW5Eu-1">
          <mxGeometry x="35" width="145" height="40" as="geometry" />
        </mxCell>
        <mxCell id="IYPOppxxPd-9olNBARrC-3" value="4" style="rounded=0;whiteSpace=wrap;html=1;" vertex="1" parent="1">
          <mxGeometry x="350" y="1270" width="130" height="50" as="geometry" />
        </mxCell>
        <mxCell id="eaE8L1mTURiurb2bW5Eu-5" style="edgeStyle=orthogonalEdgeStyle;rounded=0;orthogonalLoop=1;jettySize=auto;html=1;exitX=0;exitY=0.5;exitDx=0;exitDy=0;entryX=0.386;entryY=1;entryDx=0;entryDy=0;entryPerimeter=0;" edge="1" parent="1" source="3Lt3CKSjRMCIsp2zvB6D-17" target="DGbxmrA4Y94JSj6cVF4s-2">
          <mxGeometry relative="1" as="geometry" />
        </mxCell>
        <mxCell id="eaE8L1mTURiurb2bW5Eu-7" style="edgeStyle=orthogonalEdgeStyle;rounded=0;orthogonalLoop=1;jettySize=auto;html=1;exitX=0;exitY=0.5;exitDx=0;exitDy=0;entryX=0.381;entryY=1;entryDx=0;entryDy=0;entryPerimeter=0;" edge="1" parent="1" source="3Lt3CKSjRMCIsp2zvB6D-13" target="98ukzOstAlU-158vZe_R-2">
          <mxGeometry relative="1" as="geometry" />
        </mxCell>
        <mxCell id="eaE8L1mTURiurb2bW5Eu-9" style="edgeStyle=orthogonalEdgeStyle;rounded=0;orthogonalLoop=1;jettySize=auto;html=1;exitX=1;exitY=0.5;exitDx=0;exitDy=0;entryX=0.012;entryY=0.568;entryDx=0;entryDy=0;entryPerimeter=0;" edge="1" parent="1" source="3Lt3CKSjRMCIsp2zvB6D-15" target="IYPOppxxPd-9olNBARrC-2">
          <mxGeometry relative="1" as="geometry" />
        </mxCell>
        <mxCell id="eaE8L1mTURiurb2bW5Eu-12" style="edgeStyle=orthogonalEdgeStyle;rounded=0;orthogonalLoop=1;jettySize=auto;html=1;exitX=1;exitY=0.5;exitDx=0;exitDy=0;entryX=-0.007;entryY=0.579;entryDx=0;entryDy=0;entryPerimeter=0;" edge="1" parent="1" source="3Lt3CKSjRMCIsp2zvB6D-5" target="kH7D1sW3cfojQszVXGcr-2">
          <mxGeometry relative="1" as="geometry" />
        </mxCell>
        <mxCell id="eaE8L1mTURiurb2bW5Eu-13" style="edgeStyle=orthogonalEdgeStyle;rounded=0;orthogonalLoop=1;jettySize=auto;html=1;exitX=1;exitY=0.5;exitDx=0;exitDy=0;entryX=0.012;entryY=0.579;entryDx=0;entryDy=0;entryPerimeter=0;" edge="1" parent="1" source="3Lt3CKSjRMCIsp2zvB6D-1" target="hDwUktuh5jnSDOknOctC-2">
          <mxGeometry relative="1" as="geometry" />
        </mxCell>
        <mxCell id="ToQiDGpIalWhcaPkdFyX-1" value="&lt;font face=&quot;Times New Roman&quot; style=&quot;font-size: 50px;&quot;&gt;Персонажи и сны&lt;/font&gt;" style="text;html=1;align=center;verticalAlign=middle;resizable=0;points=[];autosize=1;strokeColor=none;fillColor=none;" vertex="1" parent="1">
          <mxGeometry x="390" y="60" width="400" height="70" as="geometry" />
        </mxCell>
      </root>
    </mxGraphModel>
  </diagram>
  <diagram id="sh5uWZYMTfuMIotGEmse" name="Symbol_ASSOCIATED_WITH_Symbol">
    <mxGraphModel dx="1941" dy="1900" grid="1" gridSize="10" guides="1" tooltips="1" connect="1" arrows="1" fold="1" page="1" pageScale="1" pageWidth="1169" pageHeight="1654" math="0" shadow="0">
      <root>
        <mxCell id="0" />
        <mxCell id="1" parent="0" />
        <mxCell id="Hd9VCMvv8GHVwrhG0-3o-1" value="" style="group" vertex="1" connectable="0" parent="1">
          <mxGeometry x="2129" y="457" width="170" height="170" as="geometry" />
        </mxCell>
        <mxCell id="Hd9VCMvv8GHVwrhG0-3o-2" value="лестница" style="ellipse;whiteSpace=wrap;html=1;aspect=fixed;" vertex="1" parent="Hd9VCMvv8GHVwrhG0-3o-1">
          <mxGeometry width="170" height="170" as="geometry" />
        </mxCell>
        <mxCell id="Hd9VCMvv8GHVwrhG0-3o-3" value="3" style="ellipse;whiteSpace=wrap;html=1;aspect=fixed;" vertex="1" parent="Hd9VCMvv8GHVwrhG0-3o-1">
          <mxGeometry x="55" width="60" height="60" as="geometry" />
        </mxCell>
        <mxCell id="Hd9VCMvv8GHVwrhG0-3o-4" value="" style="group" vertex="1" connectable="0" parent="1">
          <mxGeometry x="2109" y="1027" width="170" height="170" as="geometry" />
        </mxCell>
        <mxCell id="Hd9VCMvv8GHVwrhG0-3o-5" value="&lt;div&gt;огонь&lt;/div&gt;" style="ellipse;whiteSpace=wrap;html=1;aspect=fixed;" vertex="1" parent="Hd9VCMvv8GHVwrhG0-3o-4">
          <mxGeometry width="170" height="170" as="geometry" />
        </mxCell>
        <mxCell id="Hd9VCMvv8GHVwrhG0-3o-6" value="4" style="ellipse;whiteSpace=wrap;html=1;aspect=fixed;" vertex="1" parent="Hd9VCMvv8GHVwrhG0-3o-4">
          <mxGeometry x="55" width="60" height="60" as="geometry" />
        </mxCell>
        <mxCell id="Hd9VCMvv8GHVwrhG0-3o-7" value="" style="group" vertex="1" connectable="0" parent="1">
          <mxGeometry x="1559" y="277" width="170" height="170" as="geometry" />
        </mxCell>
        <mxCell id="Hd9VCMvv8GHVwrhG0-3o-8" value="дом" style="ellipse;whiteSpace=wrap;html=1;aspect=fixed;" vertex="1" parent="Hd9VCMvv8GHVwrhG0-3o-7">
          <mxGeometry width="170" height="170" as="geometry" />
        </mxCell>
        <mxCell id="Hd9VCMvv8GHVwrhG0-3o-9" value="5" style="ellipse;whiteSpace=wrap;html=1;aspect=fixed;" vertex="1" parent="Hd9VCMvv8GHVwrhG0-3o-7">
          <mxGeometry x="55" width="60" height="60" as="geometry" />
        </mxCell>
        <mxCell id="Hd9VCMvv8GHVwrhG0-3o-10" value="" style="group" vertex="1" connectable="0" parent="1">
          <mxGeometry x="2129" y="757" width="170" height="170" as="geometry" />
        </mxCell>
        <mxCell id="Hd9VCMvv8GHVwrhG0-3o-11" value="мост" style="ellipse;whiteSpace=wrap;html=1;aspect=fixed;" vertex="1" parent="Hd9VCMvv8GHVwrhG0-3o-10">
          <mxGeometry width="170" height="170" as="geometry" />
        </mxCell>
        <mxCell id="Hd9VCMvv8GHVwrhG0-3o-12" value="6" style="ellipse;whiteSpace=wrap;html=1;aspect=fixed;" vertex="1" parent="Hd9VCMvv8GHVwrhG0-3o-10">
          <mxGeometry x="55" width="60" height="60" as="geometry" />
        </mxCell>
        <mxCell id="Hd9VCMvv8GHVwrhG0-3o-13" value="" style="group" vertex="1" connectable="0" parent="1">
          <mxGeometry x="1909" y="277" width="170" height="170" as="geometry" />
        </mxCell>
        <mxCell id="Hd9VCMvv8GHVwrhG0-3o-14" value="дверь" style="ellipse;whiteSpace=wrap;html=1;aspect=fixed;" vertex="1" parent="Hd9VCMvv8GHVwrhG0-3o-13">
          <mxGeometry width="170" height="170" as="geometry" />
        </mxCell>
        <mxCell id="Hd9VCMvv8GHVwrhG0-3o-15" value="7" style="ellipse;whiteSpace=wrap;html=1;aspect=fixed;" vertex="1" parent="Hd9VCMvv8GHVwrhG0-3o-13">
          <mxGeometry x="55" width="60" height="60" as="geometry" />
        </mxCell>
        <mxCell id="Hd9VCMvv8GHVwrhG0-3o-16" value="" style="group" vertex="1" connectable="0" parent="1">
          <mxGeometry x="1599" y="787" width="170" height="170" as="geometry" />
        </mxCell>
        <mxCell id="Hd9VCMvv8GHVwrhG0-3o-17" value="летание" style="ellipse;whiteSpace=wrap;html=1;aspect=fixed;" vertex="1" parent="Hd9VCMvv8GHVwrhG0-3o-16">
          <mxGeometry width="170" height="170" as="geometry" />
        </mxCell>
        <mxCell id="Hd9VCMvv8GHVwrhG0-3o-18" value="8" style="ellipse;whiteSpace=wrap;html=1;aspect=fixed;" vertex="1" parent="Hd9VCMvv8GHVwrhG0-3o-16">
          <mxGeometry x="55" width="60" height="60" as="geometry" />
        </mxCell>
        <mxCell id="Hd9VCMvv8GHVwrhG0-3o-19" value="" style="group" vertex="1" connectable="0" parent="1">
          <mxGeometry x="1379" y="1107" width="170" height="170" as="geometry" />
        </mxCell>
        <mxCell id="Hd9VCMvv8GHVwrhG0-3o-20" value="тьма" style="ellipse;whiteSpace=wrap;html=1;aspect=fixed;" vertex="1" parent="Hd9VCMvv8GHVwrhG0-3o-19">
          <mxGeometry width="170" height="170" as="geometry" />
        </mxCell>
        <mxCell id="Hd9VCMvv8GHVwrhG0-3o-21" value="9" style="ellipse;whiteSpace=wrap;html=1;aspect=fixed;" vertex="1" parent="Hd9VCMvv8GHVwrhG0-3o-19">
          <mxGeometry x="55" width="60" height="60" as="geometry" />
        </mxCell>
        <mxCell id="Hd9VCMvv8GHVwrhG0-3o-22" value="" style="group" vertex="1" connectable="0" parent="1">
          <mxGeometry x="1229" y="397" width="170" height="170" as="geometry" />
        </mxCell>
        <mxCell id="Hd9VCMvv8GHVwrhG0-3o-23" value="школа" style="ellipse;whiteSpace=wrap;html=1;aspect=fixed;" vertex="1" parent="Hd9VCMvv8GHVwrhG0-3o-22">
          <mxGeometry width="170" height="170" as="geometry" />
        </mxCell>
        <mxCell id="Hd9VCMvv8GHVwrhG0-3o-24" value="10" style="ellipse;whiteSpace=wrap;html=1;aspect=fixed;" vertex="1" parent="Hd9VCMvv8GHVwrhG0-3o-22">
          <mxGeometry x="55" width="60" height="60" as="geometry" />
        </mxCell>
        <mxCell id="Hd9VCMvv8GHVwrhG0-3o-25" value="" style="group" vertex="1" connectable="0" parent="1">
          <mxGeometry x="1819" y="1207" width="170" height="170" as="geometry" />
        </mxCell>
        <mxCell id="Hd9VCMvv8GHVwrhG0-3o-26" value="&lt;span style=&quot;font-size: 14px;&quot;&gt;вода&lt;/span&gt;" style="ellipse;whiteSpace=wrap;html=1;aspect=fixed;" vertex="1" parent="Hd9VCMvv8GHVwrhG0-3o-25">
          <mxGeometry width="170" height="170" as="geometry" />
        </mxCell>
        <mxCell id="Hd9VCMvv8GHVwrhG0-3o-27" value="&lt;font style=&quot;font-size: 14px;&quot;&gt;1&lt;/font&gt;" style="ellipse;whiteSpace=wrap;html=1;aspect=fixed;" vertex="1" parent="Hd9VCMvv8GHVwrhG0-3o-25">
          <mxGeometry x="55" width="60" height="60" as="geometry" />
        </mxCell>
        <mxCell id="Hd9VCMvv8GHVwrhG0-3o-28" value="" style="group" vertex="1" connectable="0" parent="1">
          <mxGeometry x="1209" y="767" width="170" height="170" as="geometry" />
        </mxCell>
        <mxCell id="Hd9VCMvv8GHVwrhG0-3o-29" value="змея" style="ellipse;whiteSpace=wrap;html=1;aspect=fixed;" vertex="1" parent="Hd9VCMvv8GHVwrhG0-3o-28">
          <mxGeometry width="170" height="170" as="geometry" />
        </mxCell>
        <mxCell id="Hd9VCMvv8GHVwrhG0-3o-30" value="2" style="ellipse;whiteSpace=wrap;html=1;aspect=fixed;" vertex="1" parent="Hd9VCMvv8GHVwrhG0-3o-28">
          <mxGeometry x="55" width="60" height="60" as="geometry" />
        </mxCell>
        <mxCell id="Hd9VCMvv8GHVwrhG0-3o-32" value="" style="endArrow=classic;html=1;rounded=0;exitX=0.935;exitY=0.263;exitDx=0;exitDy=0;exitPerimeter=0;" edge="1" parent="1" source="Hd9VCMvv8GHVwrhG0-3o-23" target="Hd9VCMvv8GHVwrhG0-3o-8">
          <mxGeometry width="50" height="50" relative="1" as="geometry">
            <mxPoint x="1389" y="437" as="sourcePoint" />
            <mxPoint x="1439" y="387" as="targetPoint" />
          </mxGeometry>
        </mxCell>
        <mxCell id="Hd9VCMvv8GHVwrhG0-3o-33" value="" style="endArrow=classic;html=1;rounded=0;entryX=1;entryY=0.5;entryDx=0;entryDy=0;exitX=0;exitY=0.5;exitDx=0;exitDy=0;" edge="1" parent="1" source="Hd9VCMvv8GHVwrhG0-3o-14" target="Hd9VCMvv8GHVwrhG0-3o-8">
          <mxGeometry width="50" height="50" relative="1" as="geometry">
            <mxPoint x="1619" y="467" as="sourcePoint" />
            <mxPoint x="1669" y="417" as="targetPoint" />
          </mxGeometry>
        </mxCell>
        <mxCell id="Hd9VCMvv8GHVwrhG0-3o-34" value="" style="endArrow=classic;html=1;rounded=0;exitX=0;exitY=0;exitDx=0;exitDy=0;entryX=0.906;entryY=0.798;entryDx=0;entryDy=0;entryPerimeter=0;" edge="1" parent="1" source="Hd9VCMvv8GHVwrhG0-3o-2" target="Hd9VCMvv8GHVwrhG0-3o-14">
          <mxGeometry width="50" height="50" relative="1" as="geometry">
            <mxPoint x="1959" y="487" as="sourcePoint" />
            <mxPoint x="2009" y="437" as="targetPoint" />
          </mxGeometry>
        </mxCell>
        <mxCell id="Hd9VCMvv8GHVwrhG0-3o-35" value="" style="endArrow=classic;html=1;rounded=0;exitX=0.5;exitY=1;exitDx=0;exitDy=0;entryX=0.5;entryY=0;entryDx=0;entryDy=0;" edge="1" parent="1" source="Hd9VCMvv8GHVwrhG0-3o-2" target="Hd9VCMvv8GHVwrhG0-3o-12">
          <mxGeometry width="50" height="50" relative="1" as="geometry">
            <mxPoint x="1929" y="657" as="sourcePoint" />
            <mxPoint x="1979" y="607" as="targetPoint" />
          </mxGeometry>
        </mxCell>
        <mxCell id="Hd9VCMvv8GHVwrhG0-3o-36" value="" style="endArrow=classic;html=1;rounded=0;exitX=0.5;exitY=0;exitDx=0;exitDy=0;entryX=0.433;entryY=1;entryDx=0;entryDy=0;entryPerimeter=0;" edge="1" parent="1" source="Hd9VCMvv8GHVwrhG0-3o-6" target="Hd9VCMvv8GHVwrhG0-3o-11">
          <mxGeometry width="50" height="50" relative="1" as="geometry">
            <mxPoint x="1789" y="987" as="sourcePoint" />
            <mxPoint x="1839" y="937" as="targetPoint" />
          </mxGeometry>
        </mxCell>
        <mxCell id="Hd9VCMvv8GHVwrhG0-3o-37" value="" style="endArrow=classic;html=1;rounded=0;exitX=0.917;exitY=0.235;exitDx=0;exitDy=0;exitPerimeter=0;entryX=0.091;entryY=0.784;entryDx=0;entryDy=0;entryPerimeter=0;" edge="1" parent="1" source="Hd9VCMvv8GHVwrhG0-3o-26" target="Hd9VCMvv8GHVwrhG0-3o-5">
          <mxGeometry width="50" height="50" relative="1" as="geometry">
            <mxPoint x="1699" y="1147" as="sourcePoint" />
            <mxPoint x="1749" y="1097" as="targetPoint" />
          </mxGeometry>
        </mxCell>
        <mxCell id="Hd9VCMvv8GHVwrhG0-3o-38" value="" style="endArrow=classic;html=1;rounded=0;exitX=0.059;exitY=0.294;exitDx=0;exitDy=0;exitPerimeter=0;entryX=0.977;entryY=0.622;entryDx=0;entryDy=0;entryPerimeter=0;" edge="1" parent="1" source="Hd9VCMvv8GHVwrhG0-3o-26" target="Hd9VCMvv8GHVwrhG0-3o-20">
          <mxGeometry width="50" height="50" relative="1" as="geometry">
            <mxPoint x="1609" y="1067" as="sourcePoint" />
            <mxPoint x="1659" y="1017" as="targetPoint" />
          </mxGeometry>
        </mxCell>
        <mxCell id="Hd9VCMvv8GHVwrhG0-3o-39" value="" style="endArrow=classic;html=1;rounded=0;exitX=0.5;exitY=1;exitDx=0;exitDy=0;entryX=0.722;entryY=0.063;entryDx=0;entryDy=0;entryPerimeter=0;" edge="1" parent="1" source="Hd9VCMvv8GHVwrhG0-3o-17" target="Hd9VCMvv8GHVwrhG0-3o-20">
          <mxGeometry width="50" height="50" relative="1" as="geometry">
            <mxPoint x="1549" y="1007" as="sourcePoint" />
            <mxPoint x="1599" y="957" as="targetPoint" />
          </mxGeometry>
        </mxCell>
        <mxCell id="Hd9VCMvv8GHVwrhG0-3o-40" value="" style="endArrow=classic;html=1;rounded=0;exitX=0.771;exitY=0.908;exitDx=0;exitDy=0;exitPerimeter=0;entryX=0;entryY=0;entryDx=0;entryDy=0;" edge="1" parent="1" source="Hd9VCMvv8GHVwrhG0-3o-29" target="Hd9VCMvv8GHVwrhG0-3o-20">
          <mxGeometry width="50" height="50" relative="1" as="geometry">
            <mxPoint x="1549" y="1007" as="sourcePoint" />
            <mxPoint x="1599" y="957" as="targetPoint" />
          </mxGeometry>
        </mxCell>
        <mxCell id="Hd9VCMvv8GHVwrhG0-3o-41" value="" style="endArrow=classic;html=1;rounded=0;exitX=1;exitY=0.5;exitDx=0;exitDy=0;entryX=0.003;entryY=0.392;entryDx=0;entryDy=0;entryPerimeter=0;" edge="1" parent="1" source="Hd9VCMvv8GHVwrhG0-3o-29" target="Hd9VCMvv8GHVwrhG0-3o-17">
          <mxGeometry width="50" height="50" relative="1" as="geometry">
            <mxPoint x="1549" y="1007" as="sourcePoint" />
            <mxPoint x="1599" y="957" as="targetPoint" />
          </mxGeometry>
        </mxCell>
        <mxCell id="JH7lD5rk4TQt7ONG54aG-1" value="&lt;font face=&quot;Times New Roman&quot; style=&quot;font-size: 50px;&quot;&gt;Связь символов&lt;/font&gt;" style="text;html=1;align=center;verticalAlign=middle;resizable=0;points=[];autosize=1;strokeColor=none;fillColor=none;" vertex="1" parent="1">
          <mxGeometry x="1535" y="65" width="360" height="70" as="geometry" />
        </mxCell>
      </root>
    </mxGraphModel>
  </diagram>
</mxfile>
